<?xml version="1.0" encoding="UTF-8" standalone="no"?>
<!DOCTYPE svg PUBLIC "-//W3C//DTD SVG 1.1//EN" "http://www.w3.org/Graphics/SVG/1.1/DTD/svg11.dtd">
<svg width="100%" height="100%" viewBox="0 0 24 24" version="1.1" xmlns="http://www.w3.org/2000/svg" xmlns:xlink="http://www.w3.org/1999/xlink" xml:space="preserve" xmlns:serif="http://www.serif.com/" style="fill-rule:evenodd;clip-rule:evenodd;stroke-linejoin:round;stroke-miterlimit:2;">
    <path d="M21,12C21,11.448 20.552,11 20,11L4,11C3.448,11 3,11.448 3,12C3,12.552 3.448,13 4,13L20,13C20.552,13 21,12.552 21,12Z" style="fill:rgb(180,180,180);"/>
    <g transform="matrix(1,0,0,1,0,4.5)">
        <path d="M21,12C21,11.448 20.552,11 20,11L4,11C3.448,11 3,11.448 3,12C3,12.552 3.448,13 4,13L20,13C20.552,13 21,12.552 21,12Z" style="fill:rgb(180,180,180);"/>
    </g>
    <g transform="matrix(1,0,0,1,0,-4.5)">
        <path d="M21,12C21,11.448 20.552,11 20,11L4,11C3.448,11 3,11.448 3,12C3,12.552 3.448,13 4,13L20,13C20.552,13 21,12.552 21,12Z" style="fill:rgb(180,180,180);"/>
    </g>
</svg>
